<mxfile host="app.diagrams.net" agent="Mozilla/5.0 (Windows NT 10.0; Win64; x64) AppleWebKit/537.36 (KHTML, like Gecko) Chrome/131.0.0.0 Safari/537.36" version="25.0.3">
  <diagram name="Seite-1" id="sdpVUGcd8ZdfAYJY-DBQ">
    <mxGraphModel dx="989" dy="532" grid="1" gridSize="10" guides="1" tooltips="1" connect="1" arrows="1" fold="1" page="1" pageScale="1" pageWidth="827" pageHeight="1169" math="0" shadow="0">
      <root>
        <mxCell id="0" />
        <mxCell id="1" parent="0" />
        <mxCell id="eThXzIZxuzrMQbyXuAEO-1" value="FB_SmartGreifer&amp;nbsp;&lt;i&gt;&lt;font style=&quot;font-size: 10px;&quot;&gt;(I_Objekt_SmartGreifer)&lt;/font&gt;&lt;/i&gt;" style="rounded=0;whiteSpace=wrap;html=1;fillColor=#F19C99;strokeColor=#b85450;fontSize=14;" parent="1" vertex="1">
          <mxGeometry x="280" y="10" width="240" height="40" as="geometry" />
        </mxCell>
        <mxCell id="eThXzIZxuzrMQbyXuAEO-2" value="" style="rounded=0;whiteSpace=wrap;html=1;fillColor=#f8cecc;strokeColor=#b85450;" parent="1" vertex="1">
          <mxGeometry x="280" y="50" width="240" height="440" as="geometry" />
        </mxCell>
        <mxCell id="eThXzIZxuzrMQbyXuAEO-3" value="Steuerungsmethoden / Eigenschaften" style="text;html=1;align=left;verticalAlign=middle;whiteSpace=wrap;rounded=0;fontStyle=4" parent="1" vertex="1">
          <mxGeometry x="290" y="50" width="220" height="30" as="geometry" />
        </mxCell>
        <mxCell id="eThXzIZxuzrMQbyXuAEO-5" value="" style="rounded=0;whiteSpace=wrap;html=1;fillColor=none;strokeColor=none;" parent="1" vertex="1">
          <mxGeometry x="290" y="80" width="220" height="20" as="geometry" />
        </mxCell>
        <mxCell id="eThXzIZxuzrMQbyXuAEO-10" value="" style="rounded=0;whiteSpace=wrap;html=1;fillColor=none;strokeColor=none;" parent="1" vertex="1">
          <mxGeometry x="290" y="100" width="220" height="20" as="geometry" />
        </mxCell>
        <mxCell id="eThXzIZxuzrMQbyXuAEO-13" value="" style="rounded=0;whiteSpace=wrap;html=1;fillColor=none;strokeColor=none;" parent="1" vertex="1">
          <mxGeometry x="290" y="120" width="220" height="20" as="geometry" />
        </mxCell>
        <mxCell id="eThXzIZxuzrMQbyXuAEO-16" value="" style="rounded=0;whiteSpace=wrap;html=1;fillColor=none;strokeColor=none;" parent="1" vertex="1">
          <mxGeometry x="290" y="140" width="220" height="20" as="geometry" />
        </mxCell>
        <mxCell id="eThXzIZxuzrMQbyXuAEO-19" value="" style="rounded=0;whiteSpace=wrap;html=1;fillColor=none;strokeColor=none;" parent="1" vertex="1">
          <mxGeometry x="290" y="160" width="220" height="20" as="geometry" />
        </mxCell>
        <mxCell id="eThXzIZxuzrMQbyXuAEO-27" value="Betriebsvariablen" style="text;html=1;align=left;verticalAlign=middle;whiteSpace=wrap;rounded=0;fontStyle=4" parent="1" vertex="1">
          <mxGeometry x="290" y="182" width="120" height="30" as="geometry" />
        </mxCell>
        <mxCell id="eThXzIZxuzrMQbyXuAEO-33" value="" style="rounded=0;whiteSpace=wrap;html=1;fillColor=none;strokeColor=none;" parent="1" vertex="1">
          <mxGeometry x="290" y="212" width="220" height="20" as="geometry" />
        </mxCell>
        <mxCell id="eThXzIZxuzrMQbyXuAEO-34" value="" style="endArrow=none;html=1;rounded=0;strokeWidth=2;" parent="1" source="eThXzIZxuzrMQbyXuAEO-33" edge="1">
          <mxGeometry width="50" height="50" relative="1" as="geometry">
            <mxPoint x="330" y="282" as="sourcePoint" />
            <mxPoint x="270" y="222" as="targetPoint" />
          </mxGeometry>
        </mxCell>
        <mxCell id="eThXzIZxuzrMQbyXuAEO-35" value="eSysCommand" style="text;html=1;align=left;verticalAlign=middle;whiteSpace=wrap;rounded=0;fontStyle=0;fontSize=10;" parent="1" vertex="1">
          <mxGeometry x="294" y="217" width="76" height="10" as="geometry" />
        </mxCell>
        <mxCell id="eThXzIZxuzrMQbyXuAEO-39" value="" style="endArrow=none;html=1;rounded=0;strokeWidth=2;" parent="1" edge="1">
          <mxGeometry width="50" height="50" relative="1" as="geometry">
            <mxPoint x="290" y="242" as="sourcePoint" />
            <mxPoint x="270" y="242" as="targetPoint" />
          </mxGeometry>
        </mxCell>
        <mxCell id="eThXzIZxuzrMQbyXuAEO-40" value="eSysState" style="text;html=1;align=left;verticalAlign=middle;whiteSpace=wrap;rounded=0;fontStyle=0;fontSize=10;" parent="1" vertex="1">
          <mxGeometry x="294" y="237" width="76" height="10" as="geometry" />
        </mxCell>
        <mxCell id="eThXzIZxuzrMQbyXuAEO-48" value="&lt;u&gt;Prozessmethoden&lt;/u&gt;" style="text;html=1;align=left;verticalAlign=middle;whiteSpace=wrap;rounded=0;fontStyle=0" parent="1" vertex="1">
          <mxGeometry x="290" y="279" width="200" height="30" as="geometry" />
        </mxCell>
        <mxCell id="eThXzIZxuzrMQbyXuAEO-58" value="" style="endArrow=none;html=1;rounded=0;fillColor=#f8cecc;strokeColor=#b85450;entryX=1;entryY=0.464;entryDx=0;entryDy=0;entryPerimeter=0;exitX=0;exitY=0.466;exitDx=0;exitDy=0;exitPerimeter=0;strokeWidth=1;dashed=1;" parent="1" edge="1">
          <mxGeometry width="50" height="50" relative="1" as="geometry">
            <mxPoint x="280" y="182.07999999999998" as="sourcePoint" />
            <mxPoint x="520" y="181.50000000000006" as="targetPoint" />
          </mxGeometry>
        </mxCell>
        <mxCell id="eThXzIZxuzrMQbyXuAEO-59" value="" style="endArrow=none;html=1;rounded=0;fillColor=#f8cecc;strokeColor=#b85450;exitX=0;exitY=0.792;exitDx=0;exitDy=0;exitPerimeter=0;strokeWidth=1;dashed=1;entryX=1;entryY=0.793;entryDx=0;entryDy=0;entryPerimeter=0;" parent="1" edge="1">
          <mxGeometry width="50" height="50" relative="1" as="geometry">
            <mxPoint x="280" y="278.9999999999999" as="sourcePoint" />
            <mxPoint x="520" y="279.2900000000001" as="targetPoint" />
          </mxGeometry>
        </mxCell>
        <mxCell id="RpQ9mGnAC0z5zZGKGi01-6" style="edgeStyle=orthogonalEdgeStyle;rounded=0;orthogonalLoop=1;jettySize=auto;html=1;endArrow=none;endFill=0;strokeWidth=2;" parent="1" edge="1">
          <mxGeometry relative="1" as="geometry">
            <mxPoint x="530" y="222" as="targetPoint" />
            <mxPoint x="510" y="222" as="sourcePoint" />
          </mxGeometry>
        </mxCell>
        <mxCell id="RpQ9mGnAC0z5zZGKGi01-7" value="iErrorID" style="text;html=1;align=right;verticalAlign=middle;whiteSpace=wrap;rounded=0;fontStyle=0;fontSize=10;" parent="1" vertex="1">
          <mxGeometry x="429" y="217" width="75" height="10" as="geometry" />
        </mxCell>
        <mxCell id="6S4e-w0pNIEhI715A2-k-7" value="" style="endArrow=none;html=1;rounded=0;strokeWidth=2;" parent="1" edge="1">
          <mxGeometry width="50" height="50" relative="1" as="geometry">
            <mxPoint x="290" y="262.5" as="sourcePoint" />
            <mxPoint x="270" y="262.5" as="targetPoint" />
          </mxGeometry>
        </mxCell>
        <mxCell id="6S4e-w0pNIEhI715A2-k-8" value="iMode&amp;nbsp;" style="text;html=1;align=left;verticalAlign=middle;whiteSpace=wrap;rounded=0;fontStyle=0;fontSize=10;" parent="1" vertex="1">
          <mxGeometry x="294" y="257.5" width="76" height="10" as="geometry" />
        </mxCell>
        <mxCell id="YqTv8qu6AUI8KKiwsQRL-15" style="edgeStyle=orthogonalEdgeStyle;rounded=0;orthogonalLoop=1;jettySize=auto;html=1;endArrow=none;endFill=0;strokeWidth=2;" parent="1" source="YqTv8qu6AUI8KKiwsQRL-1" edge="1">
          <mxGeometry relative="1" as="geometry">
            <mxPoint x="270" y="90" as="targetPoint" />
          </mxGeometry>
        </mxCell>
        <mxCell id="YqTv8qu6AUI8KKiwsQRL-1" value="&lt;font style=&quot;font-size: 10px;&quot;&gt;M_Start&lt;/font&gt;&lt;span style=&quot;color: rgba(0, 0, 0, 0); font-family: monospace; text-align: start; text-wrap-mode: nowrap; font-size: 0px;&quot;&gt;%3CmxGraphModel%3E%3Croot%3E%3CmxCell%20id%3D%220%22%2F%3E%3CmxCell%20id%3D%221%22%20parent%3D%220%22%2F%3E%3CmxCell%20id%3D%222%22%20value%3D%22Objekt%22%20style%3D%22rounded%3D0%3BwhiteSpace%3Dwrap%3Bhtml%3D1%3BfillColor%3D%23F19C99%3BstrokeColor%3D%23b85450%3BfontSize%3D14%3B%22%20vertex%3D%221%22%20parent%3D%221%22%3E%3CmxGeometry%20x%3D%22280%22%20y%3D%22280%22%20width%3D%22240%22%20height%3D%2240%22%20as%3D%22geometry%22%2F%3E%3C%2FmxCell%3E%3C%2Froot%3E%3C%2FmxGraphModel%3E&lt;/span&gt;" style="rounded=0;whiteSpace=wrap;html=1;fillColor=#F19C99;strokeColor=#b85450;fontSize=12;" parent="1" vertex="1">
          <mxGeometry x="290" y="80" width="220" height="19" as="geometry" />
        </mxCell>
        <mxCell id="vvMoIllN2SGAD1flqvYT-16" style="edgeStyle=orthogonalEdgeStyle;rounded=0;orthogonalLoop=1;jettySize=auto;html=1;strokeWidth=2;endArrow=none;endFill=0;" parent="1" source="YqTv8qu6AUI8KKiwsQRL-2" edge="1">
          <mxGeometry relative="1" as="geometry">
            <mxPoint x="270" y="114.5" as="targetPoint" />
          </mxGeometry>
        </mxCell>
        <mxCell id="YqTv8qu6AUI8KKiwsQRL-2" value="&lt;font style=&quot;font-size: 10px;&quot;&gt;M_Stop&lt;/font&gt;&lt;span style=&quot;color: rgba(0, 0, 0, 0); font-family: monospace; font-size: 0px; text-align: start; text-wrap-mode: nowrap;&quot;&gt;%3CmxGraphModel%3E%3Croot%3E%3CmxCell%20id%3D%220%22%2F%3E%3CmxCell%20id%3D%221%22%20parent%3D%220%22%2F%3E%3CmxCell%20id%3D%222%22%20value%3D%22Objekt%22%20style%3D%22rounded%3D0%3BwhiteSpace%3Dwrap%3Bhtml%3D1%3BfillColor%3D%23F19C99%3BstrokeColor%3D%23b85450%3BfontSize%3D14%3B%22%20vertex%3D%221%22%20parent%3D%221%22%3E%3CmxGeometry%20x%3D%22280%22%20y%3D%22280%22%20width%3D%22240%22%20height%3D%2240%22%20as%3D%22geometry%22%2F%3E%3C%2FmxCell%3E%3C%2Froot%3E%3C%2FmxGraphMod&lt;/span&gt;" style="rounded=0;whiteSpace=wrap;html=1;fillColor=#F19C99;strokeColor=#b85450;fontSize=12;" parent="1" vertex="1">
          <mxGeometry x="290" y="105" width="220" height="19" as="geometry" />
        </mxCell>
        <mxCell id="vvMoIllN2SGAD1flqvYT-17" style="edgeStyle=orthogonalEdgeStyle;rounded=0;orthogonalLoop=1;jettySize=auto;html=1;endArrow=none;endFill=0;strokeWidth=2;" parent="1" source="YqTv8qu6AUI8KKiwsQRL-3" edge="1">
          <mxGeometry relative="1" as="geometry">
            <mxPoint x="270" y="138.5" as="targetPoint" />
          </mxGeometry>
        </mxCell>
        <mxCell id="YqTv8qu6AUI8KKiwsQRL-3" value="&lt;font style=&quot;font-size: 10px;&quot;&gt;M_Reset&lt;/font&gt;&lt;span style=&quot;color: rgba(0, 0, 0, 0); font-family: monospace; font-size: 0px; text-align: start; text-wrap-mode: nowrap;&quot;&gt;%3CmxGraphModel%3E%3Croot%3E%3CmxCell%20id%3D%220%22%2F%3E%3CmxCell%20id%3D%221%22%20parent%3D%220%22%2F%3E%3CmxCell%20id%3D%222%22%20value%3D%22Objekt%22%20style%3D%22rounded%3D0%3BwhiteSpace%3Dwrap%3Bhtml%3D1%3BfillColor%3D%23F19C99%3BstrokeColor%3D%23b85450%3BfontSize%3D14%3B%22%20vertex%3D%221%22%20parent%3D%221%22%3E%3CmxGeometry%20x%3D%22280%22%20y%3D%22280%22%20width%3D%22240%22%20height%3D%2240%22%20as%3D%22geometry%22%2F%3E%3C%2FmxCell%3E%3C%2Froot%3E%3C%2FmxGraphMod&lt;/span&gt;" style="rounded=0;whiteSpace=wrap;html=1;fillColor=#F19C99;strokeColor=#b85450;fontSize=12;" parent="1" vertex="1">
          <mxGeometry x="290" y="129" width="220" height="19" as="geometry" />
        </mxCell>
        <mxCell id="vvMoIllN2SGAD1flqvYT-18" style="edgeStyle=orthogonalEdgeStyle;rounded=0;orthogonalLoop=1;jettySize=auto;html=1;strokeWidth=2;endArrow=none;endFill=0;" parent="1" source="YqTv8qu6AUI8KKiwsQRL-7" edge="1">
          <mxGeometry relative="1" as="geometry">
            <mxPoint x="530" y="162.5000000000001" as="targetPoint" />
          </mxGeometry>
        </mxCell>
        <mxCell id="YqTv8qu6AUI8KKiwsQRL-7" value="&lt;font style=&quot;font-size: 10px;&quot;&gt;P_State&lt;/font&gt; &lt;font style=&quot;font-size: 8px;&quot;&gt;&lt;i&gt;[eObjectAktorState]&lt;/i&gt;&lt;/font&gt;" style="rounded=0;whiteSpace=wrap;html=1;fillColor=#F19C99;strokeColor=#b85450;fontSize=12;" parent="1" vertex="1">
          <mxGeometry x="290" y="153" width="220" height="19" as="geometry" />
        </mxCell>
        <mxCell id="YqTv8qu6AUI8KKiwsQRL-9" value="&lt;font style=&quot;font-size: 10px;&quot;&gt;M_Aktivieren&lt;/font&gt;" style="rounded=0;whiteSpace=wrap;html=1;fillColor=#F19C99;strokeColor=#b85450;fontSize=12;" parent="1" vertex="1">
          <mxGeometry x="290" y="309" width="220" height="19" as="geometry" />
        </mxCell>
        <mxCell id="YqTv8qu6AUI8KKiwsQRL-10" value="" style="endArrow=none;html=1;rounded=0;fillColor=#f8cecc;strokeColor=#b85450;exitX=0;exitY=0.792;exitDx=0;exitDy=0;exitPerimeter=0;strokeWidth=1;dashed=1;entryX=1;entryY=0.793;entryDx=0;entryDy=0;entryPerimeter=0;" parent="1" edge="1">
          <mxGeometry width="50" height="50" relative="1" as="geometry">
            <mxPoint x="280" y="408.9999999999999" as="sourcePoint" />
            <mxPoint x="520" y="409.2900000000001" as="targetPoint" />
          </mxGeometry>
        </mxCell>
        <mxCell id="YqTv8qu6AUI8KKiwsQRL-11" value="Prozesseigenschaften" style="text;html=1;align=left;verticalAlign=middle;whiteSpace=wrap;rounded=0;fontStyle=4" parent="1" vertex="1">
          <mxGeometry x="290" y="409" width="120" height="30" as="geometry" />
        </mxCell>
        <mxCell id="vvMoIllN2SGAD1flqvYT-22" style="edgeStyle=orthogonalEdgeStyle;rounded=0;orthogonalLoop=1;jettySize=auto;html=1;strokeWidth=2;endArrow=none;endFill=0;" parent="1" source="YqTv8qu6AUI8KKiwsQRL-13" edge="1">
          <mxGeometry relative="1" as="geometry">
            <mxPoint x="270" y="448.5000000000001" as="targetPoint" />
          </mxGeometry>
        </mxCell>
        <mxCell id="YqTv8qu6AUI8KKiwsQRL-13" value="&lt;font style=&quot;font-size: 10px;&quot;&gt;P_Prozessparameter&lt;/font&gt; &lt;font style=&quot;font-size: 8px;&quot;&gt;&lt;i&gt;(sSmartGreiferProzessVariablen)&lt;/i&gt;&lt;/font&gt;" style="rounded=0;whiteSpace=wrap;html=1;fillColor=#F19C99;strokeColor=#b85450;fontSize=12;" parent="1" vertex="1">
          <mxGeometry x="290" y="439" width="220" height="19" as="geometry" />
        </mxCell>
        <mxCell id="vvMoIllN2SGAD1flqvYT-19" value="&lt;font style=&quot;font-size: 10px;&quot;&gt;M_Resetten&lt;/font&gt;" style="rounded=0;whiteSpace=wrap;html=1;fillColor=#F19C99;strokeColor=#b85450;fontSize=12;" parent="1" vertex="1">
          <mxGeometry x="290" y="333" width="220" height="19" as="geometry" />
        </mxCell>
        <mxCell id="vvMoIllN2SGAD1flqvYT-20" value="&lt;font style=&quot;font-size: 10px;&quot;&gt;M_StatusLesen&lt;/font&gt;" style="rounded=0;whiteSpace=wrap;html=1;fillColor=#F19C99;strokeColor=#b85450;fontSize=12;" parent="1" vertex="1">
          <mxGeometry x="290" y="357" width="220" height="19" as="geometry" />
        </mxCell>
        <mxCell id="vvMoIllN2SGAD1flqvYT-21" value="&lt;font style=&quot;font-size: 10px;&quot;&gt;M_PositionAnfahren&lt;/font&gt;" style="rounded=0;whiteSpace=wrap;html=1;fillColor=#F19C99;strokeColor=#b85450;fontSize=12;" parent="1" vertex="1">
          <mxGeometry x="290" y="381" width="220" height="19" as="geometry" />
        </mxCell>
        <mxCell id="DjRh5GrCwW_Un5iQ5Xoc-2" style="edgeStyle=orthogonalEdgeStyle;rounded=0;orthogonalLoop=1;jettySize=auto;html=1;strokeWidth=2;endArrow=none;endFill=0;" parent="1" source="DjRh5GrCwW_Un5iQ5Xoc-1" edge="1">
          <mxGeometry relative="1" as="geometry">
            <mxPoint x="530" y="472.5" as="targetPoint" />
          </mxGeometry>
        </mxCell>
        <mxCell id="DjRh5GrCwW_Un5iQ5Xoc-1" value="&lt;font style=&quot;font-size: 10px;&quot;&gt;P_AnschlagPos&lt;/font&gt;&amp;nbsp;&lt;font style=&quot;font-size: 8px;&quot;&gt;&lt;i&gt;(Byte)&lt;/i&gt;&lt;/font&gt;" style="rounded=0;whiteSpace=wrap;html=1;fillColor=#F19C99;strokeColor=#b85450;fontSize=12;" parent="1" vertex="1">
          <mxGeometry x="290" y="463" width="220" height="19" as="geometry" />
        </mxCell>
      </root>
    </mxGraphModel>
  </diagram>
</mxfile>
